<svg xmlns="http://www.w3.org/2000/svg" aria-hidden="true" style="position:absolute;width:0;height:0;overflow:hidden">
  <defs>
    <symbol id="icon-antenna" viewBox="0 0 30 32">
      <path fill="#2e2f42" d="m28.243 19.642-7.505-7.56.833-4.103c.215.084.443.128.674.129h.006a1.919 1.919 0 1 0-1.785-1.276l-4.409.538L8.865.141a.474.474 0 0 0-.335-.142.475.475 0 0 0-.332.138L6.853 1.474a.474.474 0 0 0 0 .67l.723.734a13.281 13.281 0 0 0 2.24 15.7.456.456 0 0 0 .13.087 2.73 2.73 0 0 0-.046.486v5.499H4.211a2.373 2.373 0 0 0-2.37 2.37v.948c0 .262.212.474.474.474h21.807a.474.474 0 0 0 .474-.474v-.948a2.373 2.373 0 0 0-2.37-2.37h-5.689v-2.437c.891.187 1.799.282 2.71.284a13.2 13.2 0 0 0 6.258-1.585l.727.732c.088.09.209.141.335.142a.475.475 0 0 0 .332-.138l1.345-1.337a.474.474 0 0 0 0-.67zM21.582 5.54a.948.948 0 1 1 .668 1.621h-.003a.947.947 0 0 1-.663-1.62h-.002zm-1.116 3.116-.532 2.618-1.045-1.051 1.577-1.567zm-.538-.802-1.707 1.697-1.32-1.327 3.027-.369zM22.226 25.6c.785 0 1.422.637 1.422 1.422v.474H2.789v-.474c0-.785.637-1.422 1.422-1.422h18.015zm-6.637-1.896v.948h-4.741v-.948h4.741zm-4.741-.948v-3.603c0-1.15 1.063-2.086 2.37-2.086s2.37.936 2.37 2.086v3.603h-4.741zm5.689-1.508v-2.095c0-1.673-1.489-3.034-3.319-3.034a3.378 3.378 0 0 0-2.917 1.588A12.328 12.328 0 0 1 8.276 3.585l16.535 16.63a12.28 12.28 0 0 1-8.274 1.034zm10.035-.608L7.855 1.813l.671-.668 7.053 7.093c.003 0 .005.006.009.009l11.657 11.726-.673.668z" style="fill:var(--color1, #2e2f42)"/>
      <path fill="#4d5ae5" d="M13.223 18.015h-.004a1.422 1.422 0 0 0-.004 2.844h.004a1.422 1.422 0 0 0 .004-2.844zm.332 1.758a.474.474 0 1 1-.336-.811.475.475 0 0 1 .332.811h.004z" style="fill:var(--color2, #4d5ae5)"/>
    </symbol>
    <symbol id="icon-astronaut" viewBox="0 0 32 32">
      <path fill="#4d5ae5" d="M30.199 4.688a.475.475 0 0 0-.383-.322l-1.698-.247-.76-1.539c-.159-.324-.691-.324-.85 0l-.76 1.539-1.698.247a.475.475 0 0 0-.263.808l1.229 1.198-.29 1.691a.473.473 0 0 0 .688.5l1.519-.799 1.519.799a.47.47 0 0 0 .5-.036.473.473 0 0 0 .188-.464l-.29-1.691 1.229-1.198a.476.476 0 0 0 .12-.486zm-2.189 1.18a.475.475 0 0 0-.136.42l.17.99-.889-.467a.467.467 0 0 0-.442 0l-.889.467.17-.99a.475.475 0 0 0-.136-.42l-.72-.702.995-.145a.471.471 0 0 0 .357-.259l.445-.901.445.901c.069.14.202.237.357.259l.995.145-.719.702zm-3.002 13.041h-.948v.948h.948v-.948zm0 1.896h-.948v.948h.948v-.948zm.948-.948h-.948v.948h.948v-.948zm-1.897 0h-.948v.948h.948v-.948zm-2.37 4.267h-.948v.948h.948v-.948zm0 1.896h-.948v.948h.948v-.948zm.948-.948h-.948v.948h.948v-.948zm-1.896 0h-.948v.948h.948v-.948zM16 22.227h-.948v.948H16v-.948zm0 1.897h-.948v.948H16v-.948zm.948-.949H16v.948h.948v-.948zm-1.896 0h-.948v.948h.948v-.948zM6.992 6.108h-.948v.948h.948v-.948zm0 1.897h-.948v.948h.948v-.948zm.949-.948h-.948v.948h.948v-.948zm-1.897 0h-.948v.948h.948v-.948z" style="fill:var(--color2, #4d5ae5)"/>
      <path fill="#2e2f42" d="M23.746 13.253a1.578 1.578 0 0 0-1.056-.626 1.578 1.578 0 0 0-1.191.313l-1.113.853-1.687 1.26-1.207-.481c2.152-.966 3.657-3.118 3.657-5.618 0-3.398-2.776-6.163-6.188-6.163S8.773 5.556 8.773 8.954c0 1.232.368 2.377.996 3.341l-2.457-.021h-.004c-.008 0-.014.004-.021.004a.47.47 0 0 0-.138.027c-.011.004-.023.007-.034.012l-.017.006-2.874 1.419h-.001l-1.683.809a.453.453 0 0 0-.056.031 1.583 1.583 0 0 0 .886 2.903c.257 0 .513-.063.746-.188l1.234-.656 2.013-1.039 1.206-.007-4.837 4.814-.001.001-1.19 1.185c-.281.28-.436.651-.436 1.047s.155.767.436 1.048c.289.287.668.431 1.048.431s.759-.144 1.049-.431l1.168-1.163 1.547-1.155.801.797-1.566 1.559-.001.001-1.19 1.185c-.281.28-.436.651-.436 1.047s.155.767.436 1.048c.289.287.669.431 1.049.431s.76-.144 1.049-.431l3.095-3.081.001-.001.897-.889-.003-.003c.006-.006.014-.008.019-.014l4.592-5.029 3.085.439a.473.473 0 0 0 .233-.029c.016-.006.029-.013.044-.021.017-.009.035-.013.051-.024l2.856-1.896c.01-.007.016-.019.026-.026.011-.009.026-.013.036-.023l1.13-1.059a1.58 1.58 0 0 0 .188-2.099zM3.671 16.462a.635.635 0 0 1-.496.046.634.634 0 0 1-.188-1.12l1.168-.562.399 1.167-.882.469zm3.109-1.624-1.376.711-.39-1.141 1.802-.889-.035 1.319zm13.422-5.885c0 .816-.195 1.586-.532 2.275L15.953 9.54a1.653 1.653 0 0 0-.701-1.234l1.301-4.32c2.113.672 3.648 2.644 3.648 4.967zm-10.479 0c0-2.875 2.351-5.215 5.24-5.215.225 0 .445.019.662.046L14.352 8.01c-.017-.001-.033-.005-.051-.005-.918 0-1.665.744-1.665 1.659s.747 1.659 1.665 1.659a1.66 1.66 0 0 0 1.438-.84l3.433 1.56a5.235 5.235 0 0 1-4.21 2.124c-2.889 0-5.239-2.34-5.239-5.215zm5.294.711c0 .392-.321.711-.716.711s-.716-.319-.716-.711c0-.392.321-.711.716-.711s.716.319.716.711zM3.969 23.019a.54.54 0 0 1-.759 0 .527.527 0 0 1 0-.751l.855-.852.757.753-.852.849zm2.856 3.318a.54.54 0 0 1-.76 0 .527.527 0 0 1 0-.751l.856-.852.757.753-.853.849zm3.095-3.083-.001.001-1.569 1.564-.757-.753 1.567-1.56.001-.001c.036-.036.058-.078.08-.12.006-.012.018-.023.023-.036.015-.037.017-.076.023-.114.003-.022.012-.042.012-.064 0-.032-.011-.063-.018-.094-.006-.028-.006-.057-.017-.085a.463.463 0 0 0-.081-.122c-.009-.01-.012-.024-.022-.034H9.16l-.001-.002-1.428-1.422c-.015-.015-.035-.021-.052-.034a.49.49 0 0 0-.077-.051.48.48 0 0 0-.083-.029.473.473 0 0 0-.091-.018c-.029-.002-.056.001-.085.004-.032.004-.062.008-.092.018s-.056.024-.084.04c-.018.01-.037.013-.054.026l-1.576 1.177-.801-.797 2.132-2.121 3.876 3.812-.825.817zm6.062-6.237c-.014-.002-.027.003-.04.002a.494.494 0 0 0-.18.025.427.427 0 0 0-.086.042.395.395 0 0 0-.074.055c-.011.01-.025.015-.036.026l-4.176 4.574-3.847-3.784 2.518-2.505a.475.475 0 0 0-.338-.81l-1.972.012.025-1.429 2.759.024a6.178 6.178 0 0 0 4.428 1.867c.389 0 .768-.04 1.137-.109.036.028.071.057.115.075l2.142.853.136.674.158.787-2.669-.38zm3.592.158-.278-1.385 1.286-.96.841 1.117-1.849 1.228zm3.336-2.516-.745.698-.828-1.099.739-.566a.654.654 0 0 1 .483-.127.635.635 0 0 1 .351 1.095z" style="fill:var(--color1, #2e2f42)"/>
      <path fill="#2e2f42" d="m13.869 17.15-1.905-1.896a.474.474 0 0 0-.669 0L9.391 17.15a.477.477 0 0 0 0 .672l1.904 1.896a.473.473 0 0 0 .669 0l1.905-1.896a.476.476 0 0 0 0-.672zm-2.24 1.564-1.233-1.227 1.233-1.227 1.233 1.227-1.233 1.227zm5.406-13.54-.229.921c.063.016 1.545.402 1.545 1.91h.948c0-1.793-1.481-2.636-2.264-2.831zm2.264 3.779h-.948v.948h.948v-.948z" style="fill:var(--color1, #2e2f42)"/>
    </symbol>
    <symbol id="icon-clock" viewBox="0 0 31 32">
      <path fill="#2e2f42" d="M29.153 13.601C29.151 6.088 23.059-.002 15.546 0S1.943 6.094 1.945 13.607a13.604 13.604 0 0 0 9.466 12.957.601.601 0 0 0 .47-.058.567.567 0 0 0 .252-.317L15.569 15.3a1.7 1.7 0 1 0-.746-3.231L10.284 7.53a.567.567 0 0 0-.801.802l4.536 4.541a1.669 1.669 0 0 0 .477 2.053l-3.273 10.376c-6.469-2.383-9.782-9.559-7.399-16.028s9.559-9.782 16.028-7.399c6.469 2.383 9.782 9.559 7.399 16.028a12.476 12.476 0 0 1-6.633 7.087l-.354-1.666a.567.567 0 0 0-.932-.305l-3.411 3.045a.566.566 0 0 0 .206.963l4.354 1.39a.567.567 0 0 0 .728-.657l-.348-1.635a13.56 13.56 0 0 0 8.292-12.524zm-13.604-.567a.567.567 0 1 1 0 1.134.567.567 0 0 1 0-1.134zm1.867 13.213 1.941-1.732.536 2.525-2.477-.793z" style="fill:var(--color1, #2e2f42)"/>
      <path fill="#4d5ae5" d="M14.982 2.831v1.134a.567.567 0 0 0 1.134 0V2.831a.567.567 0 0 0-1.134 0zM4.779 13.034a.567.567 0 0 0 0 1.134h1.134a.567.567 0 0 0 0-1.134H4.779zm21.539 1.134a.567.567 0 0 0 0-1.134h-1.134a.567.567 0 0 0 0 1.134h1.134z" style="fill:var(--color2, #4d5ae5)"/>
    </symbol>
    <symbol id="icon-diagram" viewBox="0 0 32 32">
      <path fill="#4d5ae5" d="M15.045 14.857h.948v4.264h-.948v-4.264zm3.79 1.896h.948v2.369h-.948v-2.369zm-7.581 1.421h.948v.948h-.948v-.948zM8.411 17.7h.948v1.421h-.948V17.7z" style="fill:var(--color2, #4d5ae5)"/>
      <path fill="#2e2f42" d="M3.199 26.703h22.744c.785 0 1.422-.636 1.422-1.421v-1.895c0-.785-.637-1.421-1.422-1.421h-.474V10.15L28.16 7.6a1.43 1.43 0 1 0-.663-.678l-2.028 1.922V7.751a1.42 1.42 0 0 0-1.421-1.421H5.095a1.42 1.42 0 0 0-1.421 1.421v14.215H3.2a1.42 1.42 0 0 0-1.421 1.421v1.895A1.42 1.42 0 0 0 3.2 26.703zM28.786 5.855a.474.474 0 1 1 0 .947.474.474 0 0 1 0-.947zM4.621 7.75c0-.262.212-.474.474-.474h18.953c.262 0 .474.212.474.474v1.99l-.948.9V8.697a.474.474 0 0 0-.474-.474H6.042a.474.474 0 0 0-.474.474v11.846c0 .262.212.474.474.474H23.1a.474.474 0 0 0 .474-.474v-8.599l.948-.898v10.919H4.621V7.75zm4.264 6.16a1.422 1.422 0 1 0 .984 2.443l1.647.826a.474.474 0 0 0 .566-.109l3.501-3.939 3.442 2.579a.474.474 0 0 0 .61-.035l2.991-2.833v7.228H6.516V9.172h16.11v2.365l-3.352 3.175-3.471-2.602a.473.473 0 0 0-.638.064l-3.549 3.993-1.327-.664c.01-.057.016-.114.018-.172a1.42 1.42 0 0 0-1.421-1.421zm.474 1.421a.474.474 0 1 1-.947 0 .474.474 0 0 1 .947 0zm2.843 7.582h4.738v.474a.474.474 0 0 1-.474.474h-3.791a.474.474 0 0 1-.474-.474v-.474zm-9.477.473c0-.262.212-.474.474-.474h8.055v.474a1.42 1.42 0 0 0 1.421 1.421h3.791a1.42 1.42 0 0 0 1.421-1.421v-.474h8.055c.262 0 .474.212.474.474v1.895a.474.474 0 0 1-.474.474H3.198a.474.474 0 0 1-.474-.474v-1.895z" style="fill:var(--color1, #2e2f42)"/>
    </symbol>
    <symbol id="icon-facebook" viewBox="0 0 32 32">
      <path d="M21.329 5.313h2.921V.225C23.746.156 22.013 0 19.994 0c-4.212 0-7.097 2.649-7.097 7.519V12H8.249v5.688h4.648V32h5.699V17.689h4.46l.708-5.688h-5.169V8.082c.001-1.644.444-2.769 2.735-2.769z"/>
    </symbol>
    <symbol id="icon-instagram" viewBox="0 0 32 32">
      <path d="M31.969 9.408c-.075-1.7-.35-2.869-.744-3.882a7.803 7.803 0 0 0-1.85-2.838A7.867 7.867 0 0 0 26.543.844C25.524.45 24.361.175 22.661.1 20.948.019 20.404 0 16.06 0s-4.888.019-6.595.094c-1.7.075-2.869.35-3.882.744a7.803 7.803 0 0 0-2.838 1.85A7.867 7.867 0 0 0 .901 5.52C.507 6.539.232 7.702.157 9.402c-.081 1.713-.1 2.257-.1 6.601s.019 4.888.094 6.595c.075 1.7.35 2.869.744 3.882a7.895 7.895 0 0 0 1.85 2.838 7.867 7.867 0 0 0 2.832 1.844c1.019.394 2.182.669 3.882.744 1.706.075 2.25.094 6.595.094s4.888-.019 6.595-.094c1.7-.075 2.869-.35 3.882-.744a8.181 8.181 0 0 0 4.682-4.682c.394-1.019.669-2.182.744-3.882.075-1.707.094-2.25.094-6.595s-.006-4.888-.081-6.595zm-2.882 13.065c-.069 1.563-.331 2.407-.55 2.969a5.31 5.31 0 0 1-3.038 3.038c-.563.219-1.413.481-2.969.55-1.688.075-2.194.094-6.464.094s-4.782-.019-6.464-.094c-1.563-.069-2.407-.331-2.969-.55a4.926 4.926 0 0 1-1.838-1.194 4.974 4.974 0 0 1-1.194-1.838c-.219-.563-.481-1.413-.55-2.969-.075-1.688-.094-2.194-.094-6.464s.019-4.782.094-6.464c.069-1.563.331-2.407.55-2.969a4.868 4.868 0 0 1 1.2-1.838A4.974 4.974 0 0 1 6.639 3.55c.563-.219 1.413-.481 2.969-.55 1.688-.075 2.194-.094 6.464-.094 4.276 0 4.782.019 6.464.094 1.563.069 2.407.331 2.969.55a4.914 4.914 0 0 1 1.838 1.194 4.974 4.974 0 0 1 1.194 1.838c.219.563.481 1.413.55 2.969.075 1.688.094 2.194.094 6.464s-.019 4.77-.094 6.458z"/>
      <path d="M16.059 7.783c-4.538 0-8.22 3.682-8.22 8.22s3.682 8.22 8.22 8.22 8.22-3.682 8.22-8.22-3.682-8.22-8.22-8.22zm0 13.552a5.333 5.333 0 0 1 0-10.664 5.333 5.333 0 0 1 0 10.664zM26.524 7.458a1.919 1.919 0 1 1-3.838 0 1.919 1.919 0 0 1 3.838 0z"/>
    </symbol>
    <symbol id="icon-linkedin" viewBox="0 0 32 32">
      <path d="M31.992 32v-.001H32V20.263c0-5.741-1.236-10.164-7.948-10.164-3.227 0-5.392 1.771-6.276 3.449h-.093v-2.913h-6.364v21.364h6.627V21.42c0-2.785.528-5.479 3.977-5.479 3.399 0 3.449 3.179 3.449 5.657v10.401h6.62zM.528 10.636h6.635V32H.528V10.636zM3.843 0C1.722 0 0 1.721 0 3.843s1.721 3.879 3.843 3.879c2.121 0 3.843-1.757 3.843-3.879A3.846 3.846 0 0 0 3.843 0z"/>
    </symbol>
    <symbol id="icon-twitter" viewBox="0 0 32 32">
      <path d="M32 6.078c-1.19.522-2.458.868-3.78 1.036a6.523 6.523 0 0 0 2.886-3.626 13.11 13.11 0 0 1-4.16 1.588A6.574 6.574 0 0 0 22.154 3c-3.632 0-6.556 2.948-6.556 6.562 0 .52.044 1.02.152 1.496-5.454-.266-10.28-2.88-13.522-6.862a6.605 6.605 0 0 0-.898 3.316 6.57 6.57 0 0 0 2.914 5.452 6.479 6.479 0 0 1-2.964-.808v.072c0 3.188 2.274 5.836 5.256 6.446a6.548 6.548 0 0 1-1.72.216 5.8 5.8 0 0 1-1.242-.112c.85 2.598 3.262 4.508 6.13 4.57a13.182 13.182 0 0 1-8.134 2.798c-.538 0-1.054-.024-1.57-.09A18.469 18.469 0 0 0 10.064 29c12.072 0 18.672-10 18.672-18.668 0-.29-.01-.57-.024-.848A13.087 13.087 0 0 0 32 6.078z"/>
    </symbol>
    <symbol id="icon-close-black" viewBox="0 0 32 32">
      <path d="M32 3.223 28.777 0 16 12.777 3.223 0 0 3.223 12.777 16 0 28.777 3.223 32 16 19.223 28.777 32 32 28.777 19.223 16 32 3.223z"/>
    </symbol>
    <symbol id="icon-email-black" viewBox="0 0 24 32">
      <path d="M20 8H4c-1.1 0-1.99.9-1.99 2L2 22c0 1.1.9 2 2 2h16c1.1 0 2-.9 2-2V10c0-1.1-.9-2-2-2zm-.4 4.25-7.07 4.42c-.32.2-.74.2-1.06 0L4.4 12.25a.85.85 0 1 1 .9-1.44L12 15l6.7-4.19a.85.85 0 1 1 .9 1.44z"/>
    </symbol>
    <symbol id="icon-frame" viewBox="0 0 32 32">
      <path d="m32 2.667-32 15 10.227 3.156L26 8.5 14.002 21.988l.01.003-.012-.003v7.345l5.735-5.576L27 25.999l5-23.333z"/>
    </symbol>
    <symbol id="icon-person-black" viewBox="0 0 32 32">
      <path d="M16 16c2.947 0 5.333-2.387 5.333-5.333S18.946 5.334 16 5.334c-2.947 0-5.333 2.387-5.333 5.333S13.054 16 16 16zm0 2.667c-3.56 0-10.667 1.787-10.667 5.333v1.333c0 .733.6 1.333 1.333 1.333h18.667c.733 0 1.333-.6 1.333-1.333V24c0-3.547-7.107-5.333-10.667-5.333z"/>
    </symbol>
    <symbol id="icon-phone-black" viewBox="0 0 24 32">
      <path d="m19.635 18.487-2.451-.28a1.92 1.92 0 0 0-1.582.55l-1.775 1.775a14.514 14.514 0 0 1-6.359-6.359l1.785-1.785c.415-.415.618-.994.55-1.582l-.28-2.432a1.931 1.931 0 0 0-1.92-1.708H5.934c-1.09 0-1.997.907-1.93 1.997.511 8.24 7.102 14.821 15.332 15.332 1.09.068 1.997-.839 1.997-1.93v-1.669a1.913 1.913 0 0 0-1.698-1.911z"/>
    </symbol>
    <symbol id="icon-Vector" viewBox="0 0 40 32">
      <path d="M33.782 1.02a3.668 3.668 0 0 1 5.115.039 3.712 3.712 0 0 1 .135 5.141L19.454 30.817a3.674 3.674 0 0 1-4.074.914 3.675 3.675 0 0 1-1.226-.815L1.17 17.862A3.693 3.693 0 0 1-.001 15.22a3.714 3.714 0 0 1 1.077-2.682 3.664 3.664 0 0 1 4.1-.763 3.68 3.68 0 0 1 1.195.857l10.275 10.325 17.042-21.83c.031-.038.063-.074.098-.109h-.005z"/>
    </symbol>
    <symbol id="icon-burger" viewBox="0 0 36 32">
      <path d="M1.199 4.002a2.4 2.4 0 0 1 2.4-2.4h28.8a2.4 2.4 0 1 1 0 4.8h-28.8a2.4 2.4 0 0 1-2.4-2.4zM1.199 16.002a2.4 2.4 0 0 1 2.4-2.4h28.8a2.4 2.4 0 1 1 0 4.8h-28.8a2.4 2.4 0 0 1-2.4-2.4zM1.199 28.002a2.4 2.4 0 0 1 2.4-2.4h28.8a2.4 2.4 0 1 1 0 4.8h-28.8a2.4 2.4 0 0 1-2.4-2.4z"/>
    </symbol>
  </defs>
</svg>
